<svg width="21" height="21" viewBox="0 0 21 21" fill="none" xmlns="http://www.w3.org/2000/svg">
<g clip-path="url(#clip0_63_1687)">
<path d="M19.1626 16.4094L18.9643 16.2344C18.4016 15.7331 17.9091 15.1582 17.5001 14.5252C17.0534 13.6517 16.7857 12.6978 16.7126 11.7194V8.83773C16.7165 7.301 16.1591 5.81576 15.1451 4.66105C14.1311 3.50634 12.7303 2.76165 11.206 2.56689V1.81439C11.206 1.60786 11.1239 1.40978 10.9779 1.26374C10.8318 1.11769 10.6338 1.03564 10.4272 1.03564C10.2207 1.03564 10.0226 1.11769 9.87655 1.26374C9.73051 1.40978 9.64846 1.60786 9.64846 1.81439V2.57856C8.13778 2.78735 6.75395 3.53654 5.75327 4.68737C4.7526 5.8382 4.20289 7.31269 4.20596 8.83773V11.7194C4.1329 12.6978 3.86517 13.6517 3.41846 14.5252C3.01648 15.1566 2.53191 15.7314 1.97763 16.2344L1.7793 16.4094V18.0544H19.1626V16.4094Z" fill="white"/>
<path d="M8.93652 18.6665C8.98768 19.0363 9.1709 19.375 9.45236 19.6202C9.73381 19.8654 10.0945 20.0005 10.4678 20.0005C10.8411 20.0005 11.2017 19.8654 11.4832 19.6202C11.7646 19.375 11.9479 19.0363 11.999 18.6665H8.93652Z" fill="white"/>
</g>
<defs>
<clipPath id="clip0_63_1687">
<rect width="21" height="21" fill="white"/>
</clipPath>
</defs>
</svg>
