<svg width="191" height="162" viewBox="0 0 191 162" fill="none" xmlns="http://www.w3.org/2000/svg">
<path d="M190.814 101.666C190.814 86.4319 170.028 74.4982 144.558 74.4982C142.862 74.4982 140.824 74.5588 139.18 74.6621V30.2091C139.418 29.0831 139.329 27.9401 139.329 26.772C139.329 11.7599 120.002 0 94.5321 0C69.0612 0 49.1119 11.7601 49.1119 26.772C49.1119 27.9401 49.273 29.0833 49.5091 30.2091V42.3985C48.0719 42.3217 46.6154 42.2734 45.1346 42.2734C19.6645 42.2734 0.0862446 54.0316 0.0862446 69.0421C0.0862446 70.2135 -0.12447 71.3565 0.112828 72.4825V134.744H0.422449C1.22172 148.935 20.5435 159.936 45.1346 159.936C69.707 159.936 90.262 148.953 91.0897 134.743H91.3985V132.15C92.853 132.234 93.0354 132.37 94.5321 132.37C96.2318 132.37 97.8918 132.298 99.5345 132.191V132.924H99.8658L99.7696 134.62C99.7696 149.254 119.735 162 145.223 162C170.714 162 190.678 150.364 190.678 135.481L190.628 133.791H190.914V105.156C191.155 104.013 190.814 102.855 190.814 101.666ZM145.222 83.1351C167.63 83.1351 183.245 92.901 183.245 101.666C183.245 110.43 167.63 120.196 145.222 120.196C122.816 120.196 107.201 110.43 107.201 101.666C107.201 92.901 122.816 83.1351 145.222 83.1351ZM183.649 116.856V121.543C181.507 130.928 164.476 138.774 145.222 138.774C125.982 138.774 108.953 130.934 106.797 121.558V116.856C114.984 124.128 128.997 128.833 145.222 128.833C161.45 128.833 175.462 124.128 183.649 116.856ZM94.5321 79.0576C93.0543 79.0576 92.8405 78.9939 91.3983 78.9017V72.4825C91.5453 71.7856 91.6446 71.0809 91.7136 70.369C93.0473 70.4489 93.1558 70.4973 94.5322 70.4973C110.67 70.4973 123.906 65.7484 131.776 58.4735V62.0794C129.663 71.3234 113.501 79.0576 94.5321 79.0576ZM132.398 75.4626C131.74 75.5677 131.078 75.6616 130.432 75.7819C131.099 75.2586 131.799 74.7507 132.398 74.1975V75.4626ZM94.5321 8.51241C116.611 8.51241 131.375 18.1349 131.375 26.7718C131.375 35.4068 116.611 45.029 94.5319 45.029C72.452 45.029 57.0659 35.4066 57.0659 26.7718C57.0659 18.1349 72.452 8.51241 94.5321 8.51241ZM56.6668 41.7371C57.3525 42.3471 58.1355 42.9115 58.9031 43.4828C58.1729 43.3494 57.4133 43.2554 56.6668 43.1436V41.7371ZM45.1346 50.7829C67.2144 50.7829 83.2227 60.4075 83.2227 69.0423C83.2227 77.6802 67.2144 87.2995 45.1346 87.2995C23.0555 87.2995 7.66942 77.6802 7.66942 69.0423C7.66942 60.4075 23.0555 50.7829 45.1346 50.7829ZM7.2693 84.0107C15.3398 91.1763 29.1457 95.8125 45.1346 95.8125C61.1235 95.8125 75.5523 91.1761 83.6197 84.0107V88.6292C81.51 97.8759 64.1051 105.608 45.1346 105.608C26.1742 105.608 9.3954 97.8812 7.2693 88.6415V84.0107ZM7.2693 100.755C15.139 108.022 28.995 112.771 45.1346 112.771C61.2724 112.771 75.7529 108.022 83.6197 100.747V104.35C81.51 113.597 64.1051 121.329 45.1346 121.329C26.1742 121.329 9.39541 113.605 7.2693 104.365V100.755ZM7.2693 116.478C15.139 123.746 28.995 128.493 45.1346 128.493C61.2724 128.493 75.7529 123.746 83.6197 116.47V120.073C81.51 129.32 64.1051 137.052 45.1346 137.052C26.1742 137.052 9.3954 129.329 7.2693 120.086V116.478ZM45.1346 152.772C25.4531 152.772 8.16376 144.445 7.13443 134.744H7.2693V132.199C15.139 139.463 28.995 144.212 45.1346 144.212C61.2724 144.212 75.7529 139.463 83.6197 132.192V134.744H83.7524C82.7234 144.444 64.8145 152.772 45.1346 152.772ZM90.7017 63.1409C89.2026 59.0757 84.9467 55.3887 80.7609 52.2804C85.0978 53.0691 89.6972 53.5387 94.5324 53.5387C110.521 53.5387 123.705 48.9029 131.776 41.7371V46.356C129.664 55.6027 113.502 63.3348 94.5324 63.3348C92.8174 63.335 92.3688 63.2602 90.7017 63.1409ZM99.5343 125.001C97.8896 125.123 96.2242 125.208 94.5321 125.208C93.0543 125.208 92.8405 125.146 91.3983 125.051V117.509C92.8368 117.601 93.0473 117.662 94.5321 117.662C96.2367 117.662 97.8937 117.578 99.5343 117.458V125.001ZM99.5343 110.29C97.8896 110.413 96.2242 110.5 94.5321 110.5C93.0543 110.5 92.8405 110.435 91.3983 110.344V101.785C92.8368 101.877 93.0473 101.941 94.5321 101.941C96.1112 101.941 97.6486 101.867 99.1691 101.765C99.2086 102.763 99.3341 103.742 99.5345 104.707L99.5343 110.29ZM100.604 94.4985C98.6146 94.676 96.5913 94.7791 94.5322 94.7791C93.0545 94.7791 92.8407 94.7173 91.3985 94.6222V86.0677C92.837 86.1564 93.0475 86.2199 94.5322 86.2199C99.4051 86.2199 104.033 85.7403 108.39 84.9345C104.786 87.7257 102.117 90.9592 100.604 94.4985ZM145.222 154.73C124.746 154.73 106.765 145.853 106.563 135.69L106.627 133.791H106.735C114.708 141.199 128.801 146.044 145.222 146.044C161.638 146.044 175.727 141.201 183.702 133.791H183.825L183.885 135.514C183.884 145.75 165.819 154.73 145.222 154.73ZM41.5358 74.6184C41.2027 74.2195 40.9422 73.4369 40.7559 72.2705H35.3575C35.3168 74.8345 36.4361 76.6491 38.715 77.7133C40.0082 78.3052 41.9682 78.7031 44.5953 78.9068V81.6708H46.5339V78.8789C48.6012 78.7698 50.3858 78.389 51.8919 77.742C54.3581 76.6877 55.5929 74.9932 55.5929 72.6605C55.5929 70.8921 54.6967 69.5221 52.9048 68.5506C51.817 67.9691 49.6933 67.2973 46.5341 66.5369V61.2474C47.8518 61.3131 48.7593 61.6736 49.2607 62.3321C49.5494 62.7118 49.7478 63.3116 49.852 64.1356H55.1128C55.0327 61.9161 53.871 60.3083 51.6298 59.3179C50.3962 58.6976 48.6956 58.3281 46.5341 58.2079V56.3329H44.5955V58.18C43.2364 58.2546 42.2002 58.3688 41.4963 58.5273C40.3345 58.7777 39.2823 59.2324 38.3372 59.8874C37.6042 60.3974 37.0338 61.0021 36.6274 61.706C36.2203 62.4111 36.0166 63.1916 36.0166 64.052C36.0166 65.3577 36.5395 66.4734 37.5846 67.3996C38.6317 68.3236 40.4297 69.0456 42.976 69.5655L44.5955 69.898V75.8255C43.0757 75.6413 42.0563 75.2383 41.5358 74.6184ZM46.5343 70.357C47.6413 70.6429 48.4264 70.9206 48.887 71.1881C49.6649 71.6525 50.0527 72.2808 50.0527 73.0763C50.0527 74.1226 49.6397 74.8575 48.8072 75.2839C48.334 75.524 47.5754 75.6918 46.5343 75.7836V70.357ZM42.4344 65.4543C41.5956 65.0008 41.1744 64.3862 41.1744 63.6072C41.1744 62.8953 41.4559 62.3341 42.0161 61.9209C42.5739 61.5097 43.4352 61.2958 44.5959 61.2757V66.1489C43.6214 65.937 42.9004 65.7049 42.4344 65.4543ZM141.028 105.786C140.694 105.388 140.434 104.608 140.247 103.442H134.848C134.809 106.006 135.927 107.82 138.206 108.884C139.499 109.476 141.46 109.874 144.087 110.079V112.839H146.027V110.05C148.093 109.938 149.878 109.558 151.384 108.912C153.851 107.856 155.085 106.162 155.085 103.829C155.085 102.061 154.188 100.694 152.396 99.7211C151.308 99.1364 149.185 98.4658 146.027 97.7076V92.4179C147.343 92.4814 148.251 92.8443 148.752 93.5008C149.043 93.8805 149.239 94.4823 149.345 95.3062H154.604C154.524 93.0846 153.363 91.479 151.122 90.4895C149.887 89.8694 148.19 89.4966 146.026 89.3766V87.5036H144.086V89.3485C142.727 89.4253 141.694 89.5405 140.987 89.696C139.826 89.9464 138.774 90.3999 137.828 91.0582C137.095 91.5663 136.526 92.1743 136.119 92.8749C135.713 93.5798 135.509 94.3634 135.509 95.2228C135.509 96.5264 136.031 97.6425 137.079 98.5683C138.125 99.4942 139.921 100.216 142.467 100.734L144.087 101.068V106.996C142.566 106.81 141.548 106.406 141.028 105.786ZM146.027 101.525C147.132 101.813 147.917 102.089 148.379 102.357C149.157 102.821 149.544 103.451 149.544 104.248C149.544 105.291 149.131 106.028 148.3 106.455C147.825 106.695 147.067 106.861 146.027 106.953L146.027 101.525ZM141.926 96.623C141.086 96.1715 140.668 95.5566 140.668 94.7791C140.668 94.0664 140.946 93.5028 141.507 93.0918C142.068 92.6788 142.926 92.4645 144.086 92.4465V97.3176C143.113 97.1058 142.394 96.8735 141.926 96.623ZM90.6166 32.7732C90.2834 32.3752 90.023 31.5916 89.8359 30.4264H84.4383C84.3978 32.9905 85.5188 34.805 87.798 35.8683C89.0892 36.4611 91.049 36.8588 93.6765 37.0629V39.8255H95.6151V37.0344C97.6812 36.9224 99.467 36.5447 100.973 35.8963C103.439 34.8401 104.673 33.1487 104.673 30.814C104.673 29.0476 103.778 27.6776 101.985 26.705C100.897 26.1234 98.7739 25.4499 95.6151 24.6926V19.4024C96.9316 19.4688 97.8425 19.8284 98.3417 20.4867C98.6322 20.8644 98.8277 21.4671 98.935 22.2915H104.193C104.113 20.0691 102.952 18.4634 100.71 17.4738C99.476 16.8537 97.7784 16.4832 95.6149 16.364V14.4877H93.6763V16.3357C92.3162 16.4092 91.283 16.5246 90.576 16.683C89.4176 16.9322 88.3633 17.3838 87.417 18.0423C86.6836 18.5505 86.1144 19.1582 85.7075 19.8619C85.3011 20.5641 85.0976 21.3475 85.0976 22.2069C85.0976 23.5138 85.6203 24.6283 86.6674 25.5522C87.7126 26.4781 89.5093 27.2013 92.0557 27.7181L93.6763 28.0535V33.9801C92.155 33.7939 91.136 33.3929 90.6166 32.7732ZM95.6148 28.5097C96.7207 28.7976 97.5059 29.0761 97.9678 29.3438C98.7456 29.8053 99.1334 30.4365 99.1334 31.232C99.1334 32.2784 98.7192 33.0133 97.8898 33.4397C97.4136 33.679 96.655 33.8454 95.6149 33.9393L95.6148 28.5097ZM91.515 23.61C90.6751 23.1556 90.257 22.5405 90.257 21.763C90.257 21.0511 90.5355 20.4865 91.0967 20.0757C91.6567 19.6656 92.5146 19.4486 93.6761 19.4302V24.3046C92.7019 24.0896 91.9828 23.8607 91.515 23.61Z" fill="#981B46"/>
</svg>
