<svg width="167" height="126" viewBox="0 0 167 126" fill="none" xmlns="http://www.w3.org/2000/svg">
<path d="M83.8381 87.5652V123.523C83.8381 124.156 84.0986 124.788 84.6171 125.273C85.1348 125.757 85.8202 126 86.5017 126H106.083C106.768 126 107.449 125.757 107.971 125.273C108.489 124.788 108.749 124.156 108.749 123.523V75.6057L88.8365 91.5198L83.8381 87.5652ZM0.14178 123.523C0.14178 124.156 0.403329 124.792 0.924639 125.273C1.44288 125.757 2.12363 126 2.80745 126H22.3864C23.0715 126 23.753 125.757 24.2707 125.273C24.7926 124.788 25.0521 124.156 25.0521 123.523V86.8417L0.141269 105.923V123.523L0.14178 123.523ZM41.9817 73.8646V123.523C41.9817 124.156 42.2423 124.788 42.7641 125.273C43.2862 125.757 43.9672 126 44.6477 126H64.2343C64.9194 126 65.6004 125.757 66.1176 125.273C66.6397 124.788 66.9007 124.156 66.9007 123.523V74.1768L54.4492 64.3308L41.9817 73.8646ZM125.686 123.523C125.686 124.156 125.943 124.792 126.461 125.273C126.982 125.757 127.667 126 128.349 126H147.939C148.624 126 149.304 125.757 149.823 125.273C150.343 124.788 150.605 124.156 150.605 123.523V42.1383L125.686 62.0644V123.523V123.523ZM121.389 1.8112e-05C121.038 1.8112e-05 120.703 0.189124 120.565 0.510814C120.422 0.828137 120.516 1.1804 120.761 1.41191L139.487 18.5057L88.8365 59.0045L54.4497 31.8057L0 73.5172V91.5363L54.4497 49.8281L88.8367 77.0211L150.018 28.1106L165.487 42.2396C165.736 42.4636 166.115 42.5438 166.458 42.4097C166.796 42.2773 167 41.9752 167 41.6537V0.821201C166.999 0.711266 166.976 0.602682 166.931 0.502417C166.886 0.402151 166.821 0.312416 166.739 0.238971C166.567 0.0837538 166.343 -0.00142788 166.111 1.8112e-05H121.389Z" fill="#981B46"/>
</svg>
